<?xml version="1.0" encoding="UTF-8" standalone="no"?>
<!-- Created with Inkscape (http://www.inkscape.org/) -->

<svg
   xmlns:dc="http://purl.org/dc/elements/1.1/"
   xmlns:cc="http://creativecommons.org/ns#"
   xmlns:rdf="http://www.w3.org/1999/02/22-rdf-syntax-ns#"
   xmlns:svg="http://www.w3.org/2000/svg"
   xmlns="http://www.w3.org/2000/svg"
   xmlns:sodipodi="http://sodipodi.sourceforge.net/DTD/sodipodi-0.dtd"
   xmlns:inkscape="http://www.inkscape.org/namespaces/inkscape"
   width="256"
   height="256"
   viewBox="0 0 255.99999 256"
   id="svg3636"
   version="1.1"
   inkscape:version="0.91 r13725"
   sodipodi:docname="beexAppa.svg">
  <defs
     id="defs3638" />
  <sodipodi:namedview
     id="base"
     pagecolor="#ffffff"
     bordercolor="#666666"
     borderopacity="1.0"
     inkscape:pageopacity="0.0"
     inkscape:pageshadow="2"
     inkscape:zoom="1.979899"
     inkscape:cx="142.90561"
     inkscape:cy="133.04525"
     inkscape:document-units="px"
     inkscape:current-layer="layer1"
     showgrid="false"
     units="px"
     inkscape:window-width="1440"
     inkscape:window-height="837"
     inkscape:window-x="-8"
     inkscape:window-y="-8"
     inkscape:window-maximized="1" />
  <metadata
     id="metadata3641">
    <rdf:RDF>
      <cc:Work
         rdf:about="">
        <dc:format>image/svg+xml</dc:format>
        <dc:type
           rdf:resource="http://purl.org/dc/dcmitype/StillImage" />
        <dc:title></dc:title>
      </cc:Work>
    </rdf:RDF>
  </metadata>
  <g
     inkscape:label="Layer 1"
     inkscape:groupmode="layer"
     id="layer1"
     transform="translate(0,-796.36216)">
    <rect
       style="fill:#192432;fill-opacity:1;stroke:#192432;stroke-width:1.00591886;stroke-opacity:1"
       id="rect4472"
       width="257.94632"
       height="256.50931"
       x="-0.23501819"
       y="795.84991"
       ry="0" />
    <g
       id="g4441"
       transform="matrix(2.0188098,-0.52021361,0.52021361,2.0188098,-652.65569,-766.88136)"
       style="fill:#252e48;fill-opacity:1;stroke:#ffffff;stroke-opacity:1">
      <path
         inkscape:connector-curvature="0"
         transform="matrix(-0.97072215,0.24020514,0.24020514,0.97072215,0,0)"
         style="fill:#192432;fill-opacity:1;stroke:#ffffff;stroke-width:4.89818716;stroke-miterlimit:4;stroke-dasharray:none;stroke-opacity:1"
         inkscape:transform-center-x="-0.14380396"
         inkscape:transform-center-y="-0.73819735"
         d="M 92.521957,870.47284 A 17.513725,24.158051 0 0 1 75.008232,894.63089 17.513725,24.158051 0 0 1 57.494507,870.47284 17.513725,24.158051 0 0 1 75.008232,846.31479 17.513725,24.158051 0 0 1 92.521957,870.47284 Z"
         id="path4363-3-5" />
      <g
         style="fill:#252e48;fill-opacity:1;stroke:#ffffff;stroke-width:5.32189083;stroke-miterlimit:4;stroke-dasharray:none;stroke-opacity:1"
         transform="matrix(0.87957255,0,0,1.003544,16.103299,-5.3556506)"
         id="g4434">
        <path
           style="fill:#192432;fill-opacity:1;fill-rule:evenodd;stroke:#ffffff;stroke-width:5.32189083;stroke-linecap:butt;stroke-linejoin:miter;stroke-miterlimit:4;stroke-dasharray:none;stroke-opacity:1"
           d="M 87.273968,933.34612 64.363133,918.20365 79.841216,893.24402"
           id="path4397"
           inkscape:connector-curvature="0"
           sodipodi:nodetypes="ccc" />
        <path
           inkscape:connector-curvature="0"
           transform="matrix(0.98907494,-0.14741357,0.25555453,0.96679464,0,0)"
           style="fill:#192432;fill-opacity:1;stroke:#ffffff;stroke-width:5.33818483;stroke-miterlimit:4;stroke-dasharray:none;stroke-opacity:1"
           d="m -33.160965,922.72925 a 64.944954,39.502518 0 0 1 -64.944954,39.50252 64.944954,39.502518 0 0 1 -64.944951,-39.50252 64.944954,39.502518 0 0 1 64.944951,-39.50252 64.944954,39.502518 0 0 1 64.944954,39.50252 z"
           id="path4353" />
        <path
           style="fill:none;fill-opacity:1;fill-rule:evenodd;stroke:#ffffff;stroke-width:5.32189083;stroke-linecap:butt;stroke-linejoin:miter;stroke-miterlimit:4;stroke-dasharray:none;stroke-opacity:1"
           d="m 147.78041,867.40029 c -3.74354,25.58938 3.46299,54.18521 15.93255,74.04548"
           id="path4355"
           inkscape:connector-curvature="0"
           sodipodi:nodetypes="cc" />
        <path
           style="fill:none;fill-opacity:1;fill-rule:evenodd;stroke:#ffffff;stroke-width:5.32189083;stroke-linecap:butt;stroke-linejoin:miter;stroke-miterlimit:4;stroke-dasharray:none;stroke-opacity:1"
           d="m 124.95811,946.16119 c -15.82501,-24.24684 -21.49442,-48.37054 -17.22438,-74.773"
           id="path4357"
           inkscape:connector-curvature="0"
           sodipodi:nodetypes="cc" />
        <path
           style="fill:none;fill-opacity:1;fill-rule:evenodd;stroke:#ffffff;stroke-width:5.32189083;stroke-linecap:butt;stroke-linejoin:miter;stroke-miterlimit:4;stroke-dasharray:none;stroke-opacity:1"
           d="m 84.282181,887.93358 c -3.785279,23.2309 5.79933,39.84439 16.185019,52.43438"
           id="path4359"
           inkscape:connector-curvature="0"
           sodipodi:nodetypes="cc" />
      </g>
      <path
         inkscape:connector-curvature="0"
         transform="matrix(0.44085828,-0.89757672,0.89757672,0.44085828,0,0)"
         style="fill:#192432;fill-opacity:1;stroke:#ffffff;stroke-width:4.89818716;stroke-miterlimit:4;stroke-dasharray:none;stroke-opacity:1"
         inkscape:transform-center-x="0.92964821"
         inkscape:transform-center-y="-2.9974695"
         d="m -719.35487,487.35818 a 17.513725,24.158051 0 0 1 -17.51372,24.15806 17.513725,24.158051 0 0 1 -17.51373,-24.15806 17.513725,24.158051 0 0 1 17.51373,-24.15805 17.513725,24.158051 0 0 1 17.51372,24.15805 z"
         id="path4363-3" />
      <path
         inkscape:connector-curvature="0"
         style="fill:#ffffff;fill-opacity:1;stroke:#ffffff;stroke-width:0;stroke-miterlimit:4;stroke-dasharray:none;stroke-opacity:1"
         d="m 185.35833,892.48639 a 4.9244046,4.9244046 0 0 1 -4.9244,4.9244 4.9244046,4.9244046 0 0 1 -4.92441,-4.9244 4.9244046,4.9244046 0 0 1 4.92441,-4.92441 4.9244046,4.9244046 0 0 1 4.9244,4.92441 z"
         id="path4395" />
      <path
         sodipodi:nodetypes="cc"
         inkscape:connector-curvature="0"
         id="path4399"
         d="m 176.98965,874.36361 c -1.26152,-4.7393 4.77473,-23.98093 19.57828,-23.60208"
         style="fill:none;fill-opacity:1;fill-rule:evenodd;stroke:#ffffff;stroke-width:3;stroke-linecap:butt;stroke-linejoin:miter;stroke-miterlimit:4;stroke-dasharray:none;stroke-opacity:1" />
      <path
         sodipodi:nodetypes="cc"
         inkscape:connector-curvature="0"
         id="path4399-3"
         d="m 184.01257,878.83525 c -0.28825,-4.89585 9.47413,-22.5416 23.90286,-19.20989"
         style="fill:none;fill-opacity:1;fill-rule:evenodd;stroke:#ffffff;stroke-width:3;stroke-linecap:butt;stroke-linejoin:miter;stroke-miterlimit:4;stroke-dasharray:none;stroke-opacity:1" />
    </g>
    <rect
       style="fill:#ffd42a;fill-opacity:1;stroke:#ffffff;stroke-opacity:1"
       id="rect5137"
       width="76.771591"
       height="104.04572"
       x="301.53055"
       y="853.36212"
       ry="38.385796" />
  </g>
</svg>
