<?xml version="1.0" encoding="UTF-8" standalone="no"?>
<!-- Created with Inkscape (http://www.inkscape.org/) -->

<svg
   xmlns:dc="http://purl.org/dc/elements/1.1/"
   xmlns:cc="http://creativecommons.org/ns#"
   xmlns:rdf="http://www.w3.org/1999/02/22-rdf-syntax-ns#"
   xmlns:svg="http://www.w3.org/2000/svg"
   xmlns="http://www.w3.org/2000/svg"
   xmlns:sodipodi="http://sodipodi.sourceforge.net/DTD/sodipodi-0.dtd"
   xmlns:inkscape="http://www.inkscape.org/namespaces/inkscape"
   width="256mm"
   height="256mm"
   viewBox="0 0 256 256"
   version="1.1"
   id="svg833"
   inkscape:version="0.92.5 (2060ec1f9f, 2020-04-08)"
   sodipodi:docname="big-bee.svg">
  <defs
     id="defs827" />
  <sodipodi:namedview
     id="base"
     pagecolor="#ffffff"
     bordercolor="#666666"
     borderopacity="1.0"
     inkscape:pageopacity="0.0"
     inkscape:pageshadow="2"
     inkscape:zoom="0.35"
     inkscape:cx="-64.285714"
     inkscape:cy="560"
     inkscape:document-units="mm"
     inkscape:current-layer="layer1"
     showgrid="false"
     inkscape:window-width="1440"
     inkscape:window-height="837"
     inkscape:window-x="-8"
     inkscape:window-y="-8"
     inkscape:window-maximized="1" />
  <metadata
     id="metadata830">
    <rdf:RDF>
      <cc:Work
         rdf:about="">
        <dc:format>image/svg+xml</dc:format>
        <dc:type
           rdf:resource="http://purl.org/dc/dcmitype/StillImage" />
        <dc:title></dc:title>
      </cc:Work>
    </rdf:RDF>
  </metadata>
  <g
     inkscape:label="Layer 1"
     inkscape:groupmode="layer"
     id="layer1"
     transform="translate(0,-41)">
    <path
       style="fill:#18232d;fill-opacity:1;stroke-width:0.71907628"
       d="m 97.213231,267.94999 c -8.31114,-0.95497 -16.89781,-3.09904 -25.46573,-6.35876 -10.98898,-4.18083 -47.663667,-19.59814 -47.864429,-20.12128 -0.125013,-0.32539 1.79014,-8.65003 4.255619,-18.49908 2.46545,-9.84909 5.092881,-20.81485 5.838746,-24.36836 1.703144,-8.11455 3.317932,-12.89546 6.659049,-19.71551 l 2.634905,-5.3785 -2.043763,-2.23496 c -8.574343,-9.37635 -10.965055,-22.34592 -6.031897,-32.72293 4.001371,-8.41704 12.014767,-14.649 22.888207,-17.8 4.307283,-1.2482 15.420103,-2.72594 16.727263,-2.22434 0.46499,0.17829 0.62724,-1.72336 0.63476,-7.44065 0.0107,-8.76774 0.69695,-12.082086 3.81415,-18.444206 3.82823,-7.81342 11.59189,-13.71478 20.05339,-15.24315 8.560659,-1.54628 19.522419,1.59984 28.136979,8.07553 7.20204,5.41384 14.7661,15.018346 18.38629,23.346016 l 1.69653,3.90258 11.20082,0.11359 c 9.92897,0.10079 19.25654,0.96791 23.06691,2.14444 0.72064,0.22257 0.88547,-0.54248 1.16282,-5.39546 0.73598,-12.879426 5.12785,-23.434376 12.69722,-30.515146 3.21559,-3.00804 9.16182,-6.419483 12.4149,-7.122594 1.25349,-0.27097 1.41995,-0.120387 1.73725,1.570924 0.19297,1.028809 0.48048,2.208189 0.63884,2.62088 0.1821,0.47444 -0.0503,0.75032 -0.63201,0.75032 -0.50597,0 -2.62363,0.81941 -4.70589,1.82096 -9.71636,4.67337 -16.24545,16.84584 -16.90717,31.520756 l -0.28414,6.30079 4.92032,1.66042 c 2.70618,0.91322 4.99521,1.58655 5.08675,1.49629 0.0916,-0.0903 0.48251,-1.66441 0.86886,-3.49814 3.62832,-17.220056 14.80846,-30.620786 28.17567,-33.771886 1.83875,-0.43342 3.99297,-0.79157 4.78712,-0.79583 1.38371,-0.008 1.44393,0.10159 1.44393,2.61755 0,2.51245 -0.062,2.62561 -1.44393,2.63157 -0.79415,0.003 -2.62533,0.3223 -4.06925,0.70858 -10.97248,2.93538 -20.16781,14.151346 -23.62568,28.817326 -1.35473,5.74574 -1.42406,5.59773 4.26339,9.09942 23.44522,14.4348 32.80018,40.62603 23.9059,66.92948 -4.41379,13.05304 -11.82756,24.44068 -23.40412,35.94891 -21.40292,21.27659 -51.98699,35.67591 -83.63992,39.37855 -7.18497,0.84049 -21.49663,0.94067 -27.978659,0.19595 z m 22.479769,-8.65908 1.60835,-0.32165 -3.97189,-4.53516 c -8.60546,-9.82597 -17.985409,-23.22843 -24.890289,-35.56414 -4.33758,-7.74925 -6.38126,-12.04631 -10.4549,-21.98256 l -3.0054,-7.33066 -5.13171,-0.90545 c -6.60991,-1.16631 -14.077717,-3.75341 -19.106242,-6.61902 -3.673391,-2.09336 -4.032897,-2.19876 -4.645156,-1.36144 -0.930564,1.2726 -0.845009,2.56685 0.661368,10.00666 3.406589,16.82454 10.912386,32.89186 21.77827,46.61976 3.81252,4.81674 11.00781,12.33479 16.95032,17.71067 3.77096,3.4114 4.31829,3.72661 7.08841,4.08193 3.767749,0.48327 20.960119,0.6328 23.118869,0.20111 z m 19.80128,-3.31679 c 7.171,-1.75437 14.25586,-4.04366 20.72696,-6.69745 4.64295,-1.90402 16.85018,-8.05047 18.58782,-9.35907 0.96862,-0.72948 0.95718,-0.80254 -0.38758,-2.47361 -13.36509,-16.60859 -22.37194,-30.63078 -30.78539,-47.92781 -9.14029,-18.79133 -16.11083,-39.57448 -19.37369,-57.76419 -0.54837,-3.05688 -1.1076,-5.66861 -1.24279,-5.80378 -0.26852,-0.26852 -14.43817,4.22689 -15.49155,4.9149 -0.45825,0.29932 0.31751,1.4217 2.63364,3.81043 11.38363,11.74032 13.79576,26.41679 6.25841,38.07855 -5.33121,8.2484 -16.06088,14.4322 -27.884269,16.07046 -2.48121,0.34381 -4.57756,0.66741 -4.65857,0.71913 -0.0809,0.0519 1.08753,3.02067 2.59674,6.5976 5.103,12.09435 11.881119,24.32338 19.698669,35.54015 7.42181,10.64899 20.43852,25.83292 22.14576,25.83292 0.48852,0 3.71764,-0.69224 7.17584,-1.53823 z M 71.411231,248.97999 C 58.248091,234.11494 49.251976,217.53487 44.132625,198.70486 l -0.6424,-2.3628 -0.673001,3.15041 c -2.517279,11.78349 -0.628919,23.54463 5.327588,33.18099 2.938044,4.75322 9.053105,11.0958 13.746747,14.25829 3.107143,2.09355 12.427192,6.90512 13.375282,6.90512 0.24488,0 -1.49018,-2.18561 -3.85561,-4.85688 z m -28.612841,-9.4512 c -0.21715,-0.36095 -1.15353,-1.84991 -2.080723,-3.30873 -0.927221,-1.45887 -2.324101,-4.17607 -3.104183,-6.0383 -0.780107,-1.86222 -1.482678,-3.45527 -1.561248,-3.54017 -0.07854,-0.0848 -0.67349,1.99297 -1.321951,4.61741 -0.648486,2.62444 -1.083628,4.86714 -0.966982,4.98379 0.308576,0.30854 8.502894,3.86271 9.005246,3.90584 0.233729,0.0191 0.247046,-0.259 0.02989,-0.61984 z m 149.97698,-9.24553 c 12.82744,-9.84667 25.10561,-25.45429 29.9918,-38.12461 3.19909,-8.29551 3.78346,-11.38162 3.83116,-20.23219 0.0495,-9.18853 -0.54811,-12.26733 -3.66002,-18.85582 -11.46703,-24.27783 -44.98113,-36.21843 -83.85102,-29.87483 -3.3974,0.55445 -3.54419,0.63952 -3.54419,2.05376 0,0.81145 0.72138,4.94416 1.60306,9.18388 6.48135,31.16648 20.79171,62.40628 40.62088,88.67635 5.19863,6.88723 9.24207,11.35343 9.92238,10.9598 0.34258,-0.19812 2.63127,-1.90205 5.08595,-3.78634 z m 3.72375,-71.04321 c -3.04169,-2.08711 -3.98628,-3.80889 -3.98628,-7.26612 0,-3.44434 0.95116,-5.19049 3.93266,-7.21966 2.39463,-1.62977 6.52922,-1.62784 8.98507,0.003 1.9651,1.30595 4.14692,5.1022 4.14692,7.21546 0,1.90782 -2.09614,5.78252 -3.79966,7.02364 -0.91091,0.66365 -2.54462,1.12437 -4.46306,1.2586 -2.52625,0.17666 -3.32183,0.008 -4.81565,-1.01612 z M 95.900561,179.59016 c 8.179069,-2.21617 15.778199,-7.79633 18.659539,-13.70199 1.0969,-2.24822 1.28176,-3.38346 1.28696,-7.90321 0.005,-5.04491 -0.0801,-5.45054 -1.94577,-9.18867 -1.07352,-2.15092 -2.93757,-5.0501 -4.14239,-6.4426 -4.83136,-5.58396 -13.027819,-10.4786 -22.259409,-13.2925 -4.33649,-1.32184 -5.46062,-1.44264 -13.65173,-1.46708 -7.063132,-0.0217 -9.638462,0.17149 -12.339081,0.92266 -8.617936,2.39695 -15.713107,7.62211 -18.662104,13.74342 -1.321052,2.74217 -1.519994,3.76273 -1.535349,7.87599 -0.01631,4.40047 0.11876,5.01105 1.963153,8.87414 4.595883,9.62568 16.492291,17.95986 29.767231,20.8538 5.58934,1.21848 17.89518,1.07102 22.85895,-0.27396 z m 8.285629,-55.77888 c 8.2511,-3.49732 21.22133,-7.34154 29.98938,-8.88852 2.28013,-0.40229 4.2446,-0.83037 4.3655,-0.95125 0.42588,-0.42587 -3.67613,-7.98179 -6.16821,-11.36191 -3.25358,-4.412966 -8.35441,-9.295016 -12.53391,-11.996376 -12.95105,-8.37067 -26.931229,-6.00515 -32.785359,5.54741 -2.45953,4.853636 -3.20192,8.351876 -3.1531,14.858106 0.0617,8.20252 0.21171,8.49193 4.98857,9.6213 2.12361,0.50206 5.63321,1.70735 7.79911,2.67845 2.1659,0.97111 4.004189,1.79071 4.085079,1.82134 0.0809,0.0307 1.61671,-0.56724 3.41294,-1.32855 z"
       id="path4185"
       inkscape:connector-curvature="0" />
  </g>
</svg>
