<?xml version="1.0" encoding="UTF-8" standalone="no"?>
<svg
   xmlns:dc="http://purl.org/dc/elements/1.1/"
   xmlns:cc="http://creativecommons.org/ns#"
   xmlns:rdf="http://www.w3.org/1999/02/22-rdf-syntax-ns#"
   xmlns:svg="http://www.w3.org/2000/svg"
   xmlns="http://www.w3.org/2000/svg"
   xmlns:sodipodi="http://sodipodi.sourceforge.net/DTD/sodipodi-0.dtd"
   xmlns:inkscape="http://www.inkscape.org/namespaces/inkscape"
   height="48px"
   viewBox="0 0 24 24"
   width="48px"
   fill="#FFFFFF"
   version="1.1"
   id="svg6"
   sodipodi:docname="discord-grey-2.svg"
   inkscape:version="1.0.2-2 (e86c870879, 2021-01-15)">
  <metadata
     id="metadata12">
    <rdf:RDF>
      <cc:Work
         rdf:about="">
        <dc:format>image/svg+xml</dc:format>
        <dc:type
           rdf:resource="http://purl.org/dc/dcmitype/StillImage" />
        <dc:title></dc:title>
      </cc:Work>
    </rdf:RDF>
  </metadata>
  <defs
     id="defs10" />
  <sodipodi:namedview
     pagecolor="#ffffff"
     bordercolor="#666666"
     borderopacity="1"
     objecttolerance="10"
     gridtolerance="10"
     guidetolerance="10"
     inkscape:pageopacity="0"
     inkscape:pageshadow="2"
     inkscape:window-width="1920"
     inkscape:window-height="1017"
     id="namedview8"
     showgrid="false"
     inkscape:zoom="12.521683"
     inkscape:cx="42.380077"
     inkscape:cy="21.250429"
     inkscape:window-x="-8"
     inkscape:window-y="-8"
     inkscape:window-maximized="1"
     inkscape:current-layer="svg6" />
  <path
     d="M0 0h24v24H0V0z"
     fill="none"
     id="path2" />
  <path
     style="fill:#b3b3b3;fill-opacity:1;stroke-width:0.0791798"
     d="M 7.1639965,18.560619 C 6.1444426,18.387615 4.9841801,17.955635 4.187899,17.452709 3.5787739,17.068022 2.7617547,16.213238 2.6897145,15.885233 2.6606956,15.753232 2.6771159,15.173405 2.7259561,14.596922 3.007769,11.276951 4.2644707,7.3053084 5.329925,6.3674795 6.0398398,5.7425737 7.5849428,5.1453907 9.033666,4.9359062 c 0.672107,-0.097201 0.681834,-0.096202 0.829328,0.086 0.207437,0.256144 0.186502,0.3932426 -0.0685,0.448343 C 8.6348822,5.7207942 7.2998444,6.2080387 6.658315,6.6148816 6.2215482,6.891866 6.1644779,7.1609489 6.4963526,7.3783673 6.6955746,7.5089716 6.7157202,7.5055738 7.1495794,7.2677724 8.7564474,6.3873374 11.022119,5.9416581 12.904783,6.1357785 c 1.520031,0.156803 3.001993,0.5876432 3.968252,1.1538923 0.183222,0.1074001 0.383634,0.1951991 0.44534,0.1951991 0.162862,0 0.374277,-0.2616611 0.374277,-0.4632442 0,-0.395324 -1.76,-1.174668 -3.503699,-1.5513762 -0.254984,-0.055397 -0.275932,-0.192199 -0.06849,-0.448343 0.147502,-0.1822024 0.157221,-0.1832017 0.829334,-0.086 1.450743,0.2097641 2.993854,0.8067259 3.706201,1.4337158 0.813992,0.7165048 1.856555,3.5123924 2.356674,6.3200407 0.195882,1.099709 0.35186,2.873147 0.281051,3.19557 -0.07276,0.331324 -0.891294,1.184214 -1.513821,1.577358 -0.934852,0.590403 -2.400036,1.07889 -3.371674,1.124149 l -0.491382,0.02317 -0.415701,-0.550568 c -0.228634,-0.30276 -0.401267,-0.564943 -0.383632,-0.582561 0.0176,-0.01798 0.337161,-0.134603 0.710073,-0.259863 0.79481,-0.267104 1.335194,-0.530306 1.964051,-0.95675 0.369902,-0.250782 0.455282,-0.349747 0.455282,-0.527483 0,-0.514328 -0.344914,-0.530809 -1.074917,-0.0514 -1.293572,0.849608 -3.102205,1.305388 -5.180277,1.305388 -2.07807,0 -3.8866974,-0.45578 -5.1802691,-1.305388 -0.7300032,-0.479444 -1.0749139,-0.462964 -1.0749139,0.0514 0,0.177799 0.085381,0.276701 0.4552772,0.527483 0.62886,0.426444 1.169242,0.689646 1.964055,0.95675 0.3729039,0.125199 0.6924332,0.242259 0.7100735,0.259863 0.017597,0.01797 -0.1537014,0.279801 -0.380773,0.582561 -0.4588141,0.611867 -0.5245881,0.636829 -1.3211639,0.501587 z m 2.9036255,-4.593664 c 0.311549,-0.191404 0.536411,-0.544307 0.659876,-1.035427 0.176343,-0.701447 -0.1822,-1.527416 -0.802275,-1.848021 -0.122021,-0.063 -0.39643,-0.114801 -0.609804,-0.114801 -0.7599361,0 -1.3637002,0.705267 -1.3601262,1.588816 0.00499,1.250593 1.1393352,2.007339 2.1123292,1.409371 z m 4.871073,0.165404 c 1.219821,-0.338787 1.491367,-2.168263 0.435349,-2.933209 -0.796265,-0.576867 -1.882474,-0.07519 -2.118227,0.978307 -0.214604,0.958932 0.428102,1.955483 1.309235,2.030041 0.04352,0.0059 0.211686,-0.0304 0.373643,-0.07519 z"
     id="path4727"
     inkscape:connector-curvature="0" />
</svg>
