<?xml version="1.0" encoding="UTF-8" standalone="no"?>
<svg
   xmlns:dc="http://purl.org/dc/elements/1.1/"
   xmlns:cc="http://creativecommons.org/ns#"
   xmlns:rdf="http://www.w3.org/1999/02/22-rdf-syntax-ns#"
   xmlns:svg="http://www.w3.org/2000/svg"
   xmlns="http://www.w3.org/2000/svg"
   xmlns:sodipodi="http://sodipodi.sourceforge.net/DTD/sodipodi-0.dtd"
   xmlns:inkscape="http://www.inkscape.org/namespaces/inkscape"
   height="48px"
   viewBox="0 0 24 24"
   width="48px"
   fill="#FFFFFF"
   version="1.1"
   id="svg6"
   sodipodi:docname="telegram-grey-2.svg"
   inkscape:version="1.0.2-2 (e86c870879, 2021-01-15)">
  <metadata
     id="metadata12">
    <rdf:RDF>
      <cc:Work
         rdf:about="">
        <dc:format>image/svg+xml</dc:format>
        <dc:type
           rdf:resource="http://purl.org/dc/dcmitype/StillImage" />
        <dc:title></dc:title>
      </cc:Work>
    </rdf:RDF>
  </metadata>
  <defs
     id="defs10" />
  <sodipodi:namedview
     pagecolor="#ffffff"
     bordercolor="#666666"
     borderopacity="1"
     objecttolerance="10"
     gridtolerance="10"
     guidetolerance="10"
     inkscape:pageopacity="0"
     inkscape:pageshadow="2"
     inkscape:window-width="1920"
     inkscape:window-height="1017"
     id="namedview8"
     showgrid="false"
     inkscape:zoom="12.521683"
     inkscape:cx="35.558495"
     inkscape:cy="32.351279"
     inkscape:window-x="-8"
     inkscape:window-y="-8"
     inkscape:window-maximized="1"
     inkscape:current-layer="svg6" />
  <path
     d="M0 0h24v24H0V0z"
     fill="none"
     id="path2" />
  <path
     inkscape:connector-curvature="0"
     id="path5161-6-3-2-6"
     d="m 16.055254,19.216287 c -0.113789,-0.04635 -1.124376,-0.763535 -2.245787,-1.593688 l -2.038916,-1.509301 -0.352565,0.340732 c -0.194057,0.187227 -0.684017,0.665022 -1.089038,1.061644 -0.4853141,0.475285 -0.8069531,0.753174 -0.9429141,0.814913 -0.288387,0.130772 -0.3672554,0.12414 -0.3675869,-0.03091 0,-0.204221 0.2317379,-3.746026 0.2560289,-3.903212 0.01876,-0.121882 0.591905,-0.656622 3.8405901,-3.582906 3.987927,-3.5923977 4.0035,-3.6078606 3.661322,-3.6471843 -0.07173,-0.011037 -0.192733,0.011037 -0.269713,0.034214 -0.07737,0.027711 -2.236185,1.3736729 -4.797973,2.9927663 -2.5618981,1.619205 -4.6926059,2.944064 -4.7346888,2.944064 -0.1027547,0 -4.0726454,-1.261906 -4.2800678,-1.360308 C 2.4988962,11.684291 2.35,11.507166 2.35,11.367345 c 0,-0.156192 0.1858901,-0.397518 0.4152972,-0.539449 0.1136676,-0.06953 3.8278747,-1.5245445 8.2540788,-3.2322295 8.678095,-3.3478596 8.304991,-3.2179692 8.623653,-3.0010572 0.266072,0.1810345 0.341175,0.3257247 0.359518,0.6921952 0.01545,0.2941379 -0.137628,1.0572435 -1.36959,6.8565575 -0.789173,3.714009 -1.423272,6.597095 -1.471865,6.691769 -0.04758,0.09159 -0.149436,0.226855 -0.227643,0.301188 -0.18378,0.17451 -0.562182,0.209077 -0.878195,0.08069 z"
     style="fill:#b3b3b3;fill-opacity:1;stroke-width:1.10451" />
</svg>
